<?xml version="1.0" encoding="utf-8"?>
<!-- Generator: Adobe Illustrator 28.0.0, SVG Export Plug-In . SVG Version: 6.00 Build 0)  -->
<svg version="1.1" xmlns="http://www.w3.org/2000/svg" xmlns:xlink="http://www.w3.org/1999/xlink" x="0px" y="0px"
	 viewBox="0 0 1094.14 910.83" style="enable-background:new 0 0 1094.14 910.83;" xml:space="preserve">
<style type="text/css">
	.st0{fill:#9333EA;stroke:#000000;stroke-miterlimit:10;}
	.st1{fill:#9333EA;stroke:#9333EA;stroke-miterlimit:10;}
	.st2{display:none;}
	.st3{display:inline;stroke:#000000;stroke-miterlimit:10;}
	.st4{fill:#FFFFFF;}
</style>
<g id="Layer_5">
	<rect x="507.79" y="411.37" class="st0" width="88.5" height="33.24"/>
</g>
<g id="Layer_6">
	<path class="st0" d="M213.1,318.38c0,0,48.97,82.09,73.54,93.25c5.42,2.46,23.81,0,23.81,0v32.92c0,0-32.57,4.32-42.23,0.06
		C241.48,432.8,183,353.42,183,353.42L213.1,318.38z"/>
</g>
<g id="Layer_7">
	<path class="st0" d="M883.8,313.99c0,0-48.97,82.09-73.54,93.25c-5.42,2.46-23.81,0-23.81,0v32.92c0,0,32.57,4.32,42.23,0.06
		c26.74-11.81,85.22-91.19,85.22-91.19L883.8,313.99z"/>
	<path class="st1" d="M784.05,656.17c28.93-33.09-2.16-44.64-21.15-27.85c-84.87,75.02-148.21,90.3-246.59,79.51
		c-24.63-2.7-32.34,22.01-5.97,30.1C572.24,756.91,705.88,745.57,784.05,656.17z"/>
</g>
<g id="Layer_9">
</g>
<g id="Layer_8">
	<g>
		<path class="st1" d="M614.57,310.15c-19.12,13.41-4.54,23.31,7.39,17.05c53.3-27.97,87.92-27.83,137.33-9.81
			c12.37,4.51,19.48-7.26,6.89-14.78C736.64,284.98,666.23,273.92,614.57,310.15z"/>
		<path class="st1" d="M489.51,310.15c19.12,13.41,4.54,23.31-7.39,17.05c-53.3-27.97-87.92-27.83-137.33-9.81
			c-12.37,4.51-19.48-7.26-6.89-14.78C367.45,284.98,437.85,273.92,489.51,310.15z"/>
	</g>
</g>
<g id="Layer_1" class="st2">
	<path class="st3" d="M268.94,910.33c-47.81,0-84.36-13.33-109.64-39.95c-25.28-26.64-37.91-62.5-37.91-107.58V584.52
		c0-28-5.3-49.69-15.88-65.06c-10.59-15.36-25.11-26.28-43.55-32.78c-18.44-6.48-38.94-10.08-61.47-10.77v-43.03
		c22.53-0.67,43.03-4.25,61.47-10.75c18.44-6.48,32.95-17.41,43.55-32.78c10.58-15.38,15.88-36.72,15.88-64.05V147.02
		c0-46.44,12.62-82.47,37.91-108.09C184.58,13.31,221.12,0.5,268.94,0.5h67.62v44.06h-30.73c-30.06,0-51.59,9.06-64.56,27.16
		s-19.45,44.91-19.45,80.42v175.2c0,33.47-9.41,61.31-28.19,83.5c-18.78,22.2-47.3,36.38-85.55,42.53v1.02
		c38.94,6.84,67.62,21.19,86.06,43.05s27.67,49.86,27.67,84V758.7c0,34.83,6.48,61.47,19.45,79.92
		c12.97,18.42,34.5,27.66,64.56,27.66h30.73v44.05H268.94z"/>
</g>
<g id="Layer_10">
	<g>
		<g>
			<path class="st0" d="M312.29,386.62c10.36-19.52,43.98-26.91,67-29c66-6,144-3,136,75c-4.67,45.51-35.07,81.15-71,92
				c-6.06,1.83-48.85,12.41-88-12c-33.51-20.89-42-47-45-57C306.87,440.86,301.61,406.75,312.29,386.62z"/>
			<path class="st4" d="M333.29,473.68c0,0-4.64-3.11-8.71-15.01c-9.06-26.48,11.19-90.51,11.25-90.54
				c6.16-2.72,16.16-6.23,27.07-7.79C362.9,360.34,322.72,430.83,333.29,473.68z"/>
			<path class="st4" d="M347.53,470.81c-7.23-49.86,49.44-114.03,49.44-114.03c10.64-0.76,17.97-0.97,28.93-0.58
				c0,0-83.26,67.26-72.17,131.45C353.74,487.65,348.74,479.17,347.53,470.81z"/>
		</g>
		<g>
			<path class="st0" d="M789.56,386.68c-10.36-19.52-43.98-26.91-67-29c-66-6-144-3-136,75c4.67,45.51,35.07,81.15,71,92
				c6.06,1.83,48.85,12.41,88-12c33.51-20.89,42-47,45-57C794.99,440.92,800.24,406.81,789.56,386.68z"/>
			<path class="st4" d="M768.23,473.13c0,0,4.64-3.11,8.71-15.01c9.06-26.48-11.29-89.99-11.35-90.02
				c-6.12-2.67-15.98-5.78-26.8-7.72C738.79,360.38,778.8,430.28,768.23,473.13z"/>
			<path class="st4" d="M752.14,470.44c7.23-49.86-49.67-113.73-49.67-113.73c-10.64-0.7-17.76-0.71-28.66-0.37
				c0,0,83.22,66.76,72.13,130.94C745.93,487.29,750.92,478.81,752.14,470.44z"/>
		</g>
	</g>
	<g>
		<path class="st1" d="M267.65,906.72c-47.55,0-83.91-13.31-109.04-39.91c-25.13-26.62-37.7-62.43-37.7-107.46v-176.7
			c0-28.02-5.3-49.73-15.89-65.1c-10.6-15.37-25.13-26.32-43.58-32.82c-18.46-6.49-38.97-10.07-61.53-10.76V430.9
			c22.56-0.69,43.06-4.28,61.53-10.78c18.45-6.49,32.98-17.43,43.58-32.8c10.59-15.37,15.89-36.74,15.89-64.08V146.08
			c0-46.4,12.57-82.39,37.7-107.98S220.1-0.28,267.65-0.28h67.26v44H304.4c-29.87,0-51.24,9.03-64.14,27.08
			s-19.34,44.76-19.34,80.15v174.62c0,33.37-9.35,61.12-28,83.24s-46.99,36.25-85,42.37v1.02c38.69,6.81,67.19,21.12,85.51,42.9
			s27.49,49.7,27.49,83.73V755.5c0,34.72,6.45,61.26,19.34,79.65c12.9,18.37,34.27,27.58,64.14,27.58h30.52v44H267.65z"/>
	</g>
	<g>
		<path class="st1" d="M758.91,906.72v-44h30.52c29.87,0,51.24-9.2,64.14-27.58c12.9-18.39,19.34-44.94,19.34-79.66V578.8
			c0-34.03,9.17-61.95,27.49-83.73c18.32-21.78,46.82-36.09,85.51-42.91v-1.02c-38-6.12-66.34-20.25-85-42.38s-28-49.88-28-83.25
			V151.19c0-35.47-6.45-62.24-19.34-80.33s-34.26-27.14-64.12-27.14h-30.54v-44h66.35c47.85,0,84.43,12.77,109.72,38.3
			s37.93,61.45,37.93,107.75v177.7c0,27.23,5.3,48.52,15.89,63.83c10.6,15.31,25.13,26.2,43.58,32.67
			c18.46,6.47,38.97,10.05,61.53,10.73v42.89c-22.56,0.69-43.06,4.25-61.53,10.72c-18.45,6.47-32.98,17.38-43.58,32.69
			c-10.59,15.31-15.89,36.94-15.89,64.84v177.5c0,45.03-12.57,80.84-37.7,107.46c-25.13,26.6-61.49,39.91-109.04,39.91H758.91z"/>
	</g>
</g>
</svg>
